<?xml version="1.0" encoding="iso-8859-1"?>
<!-- Uploaded to: SVG Repo, www.svgrepo.com, Generator: SVG Repo Mixer Tools -->
<svg fill="#000000" height="800px" width="800px" version="1.1" id="Layer_1" xmlns="http://www.w3.org/2000/svg" xmlns:xlink="http://www.w3.org/1999/xlink" 
	 viewBox="0 0 329.989 329.989" xml:space="preserve">
<path id="XMLID_197_" d="M329.989,174.904c0-19.471-12.441-36.086-29.791-42.332c-0.774-27.952-15.317-53.87-41.16-73.202
	c-25.264-18.899-58.619-29.307-93.923-29.307c-35.306,0-68.664,10.408-93.929,29.307c-25.819,19.313-40.361,45.201-41.161,73.123
	C12.554,138.673,0,155.346,0,174.904c0,19.565,12.539,36.247,29.994,42.441v17.557c0,35.841,29.159,65,65,65h69.508
	c0.164,0.005,0.327,0.023,0.491,0.023c0.164,0,0.327-0.018,0.491-0.023h69.511c35.841,0,65-29.159,65-65v-17.557
	C317.45,211.15,329.989,194.468,329.989,174.904z M285.229,189.914c-0.079-0.001-0.155-0.012-0.234-0.012h-240
	c-0.079,0-0.156,0.011-0.235,0.012C36.601,189.79,30,183.11,30,174.904c0-8.259,6.723-14.979,14.987-14.979H285
	c8.265,0,14.988,6.719,14.988,14.979C299.989,183.11,293.388,189.79,285.229,189.914z M208.781,219.926l-43.788,43.787
	l-43.786-43.787H208.781z M89.156,83.393c20.112-15.044,47.088-23.33,75.959-23.33c28.868,0,55.842,8.285,75.952,23.329
	c17.166,12.842,27.293,29.206,28.932,46.533H60.223C61.861,112.598,71.989,96.234,89.156,83.393z M59.994,234.902v-14.977h18.787
	l49.976,49.977H94.994C75.695,269.902,59.994,254.201,59.994,234.902z M234.995,269.902H201.23l49.978-49.977h18.787v14.977
	C269.995,254.201,254.293,269.902,234.995,269.902z"/>
</svg>